<?xml version="1.0" encoding="UTF-8"?>
<svg width="30" height="30" version="1.1" viewBox="0 0 30 30" xmlns="http://www.w3.org/2000/svg" xmlns:xlink="http://www.w3.org/1999/xlink">
 <defs>
  <linearGradient id="b" x1="459.06" x2="617.54" y1="804.05" y2="962.53" gradientTransform="matrix(.038726 0 0 .039279 1.0578 1011.8)" gradientUnits="userSpaceOnUse">
   <stop stop-color="#f57c00" offset="0"/>
   <stop stop-color="#f57c00" stop-opacity="0" offset="1"/>
  </linearGradient>
  <linearGradient id="a" x1="149.56" x2="482.79" y1="522.55" y2="855.78" gradientTransform="matrix(.038726 0 0 .039279 1.0421 1011.9)" gradientUnits="userSpaceOnUse">
   <stop stop-color="#f57c00" offset="0"/>
   <stop stop-color="#f57c00" stop-opacity="0" offset="1"/>
  </linearGradient>
 </defs>
 <g transform="translate(0 -1024.2)">
  <circle cx="15" cy="1039.2" r="14" fill="#ff9800"/>
  <path d="m19.801 1045.4 3.3692-2.1604 3.5666 3.6175c-2.2183 3.5014-6.2845 6.1595-11.31 6.3398l-1.733-1.7184 0.0662-6.3536z" fill="url(#b)" fill-rule="evenodd"/>
  <path d="m13.977 1045.9v5.0127" fill="none" stroke="#000" stroke-linecap="round" stroke-width="1.4336"/>
  <path d="m6.8511 1032.4 12.935 13.119-6.0413-0.2749-4.105-2.2389-2.556-3.6922-0.77453-4.3599z" fill="url(#a)" fill-rule="evenodd"/>
  <g fill="none" stroke="#000">
   <g stroke-linecap="round" stroke-linejoin="round">
    <path d="m6.7221 1032.9 10.124 2.253" stroke-width=".58502"/>
    <path d="m16.846 1035.2 6.0264 8.5529" stroke-width=".58502"/>
    <path d="m22.872 1043.7c-3.4892 2.5291-8.1539 2.6175-11.734 0.2222" stroke-width="1.3651"/>
    <path d="m11.139 1044c-3.5799-2.3952-5.3357-6.7793-4.4166-11.028" stroke-width="1.3651"/>
   </g>
   <path d="m16.914 1035.2-5.6958 8.6933" stroke-width=".58502"/>
   <path d="m25.461 1032.5c-1.6821 0.8094-3.6718 0.5774-5.1289-0.598-1.4571-1.1755-2.1278-3.0895-1.7288-4.934" stroke-linecap="round" stroke-linejoin="round" stroke-width=".39002"/>
   <path d="m24.575 1030.6c-0.98114 0.4562-2.1323 0.3103-2.9726-0.3768-0.8403-0.687-1.2252-1.797-0.99387-2.8663" stroke-linecap="round" stroke-linejoin="round" stroke-width=".39002"/>
  </g>
 </g>
</svg>
