<?xml version="1.0" encoding="UTF-8" standalone="no"?>
<svg
   xmlns:dc="http://purl.org/dc/elements/1.1/"
   xmlns:cc="http://creativecommons.org/ns#"
   xmlns:rdf="http://www.w3.org/1999/02/22-rdf-syntax-ns#"
   xmlns:svg="http://www.w3.org/2000/svg"
   xmlns="http://www.w3.org/2000/svg"
   xmlns:sodipodi="http://sodipodi.sourceforge.net/DTD/sodipodi-0.dtd"
   xmlns:inkscape="http://www.inkscape.org/namespaces/inkscape"
   fill="#000000"
   height="24"
   viewBox="0 0 24 24"
   width="24"
   id="svg2"
   version="1.1"
   inkscape:version="0.91 r13725"
   sodipodi:docname="ic_ondemand_video_pause.svg">
  <metadata
     id="metadata12">
    <rdf:RDF>
      <cc:Work
         rdf:about="">
        <dc:format>image/svg+xml</dc:format>
        <dc:type
           rdf:resource="http://purl.org/dc/dcmitype/StillImage" />
        <dc:title></dc:title>
      </cc:Work>
    </rdf:RDF>
  </metadata>
  <defs
     id="defs10" />
  <sodipodi:namedview
     pagecolor="#ffffff"
     bordercolor="#666666"
     borderopacity="1"
     objecttolerance="10"
     gridtolerance="10"
     guidetolerance="10"
     inkscape:pageopacity="0"
     inkscape:pageshadow="2"
     inkscape:window-width="1920"
     inkscape:window-height="1016"
     id="namedview8"
     showgrid="false"
     inkscape:zoom="27.812867"
     inkscape:cx="16.213857"
     inkscape:cy="12.136839"
     inkscape:window-x="0"
     inkscape:window-y="27"
     inkscape:window-maximized="1"
     inkscape:current-layer="svg2" />
  <path
     d="M0 0h24v24H0V0z"
     fill="none"
     id="path4" />
  <path
     d="M 21,3 3,3 C 1.89,3 1,3.89 1,5 l 0,12 c 0,1.1 0.89,2 2,2 l 5,0 0,2 8,0 0,-2 5,0 c 1.1,0 1.99,-0.9 1.99,-2 L 23,5 C 23,3.89 22.1,3 21,3 Z M 21,17 3,17 3,5 21,5 Z"
     id="path6"
     inkscape:connector-curvature="0"
     sodipodi:nodetypes="sssssccccsccsccccc" />
  <g
     style="fill:#000000"
     id="g4202"
     transform="matrix(0.56904616,0,0,0.56904616,5,4.1734007)">
    <path
       id="path4192"
       d="m 6,19 4,0 0,-14 -4,0 0,14 z m 8,-14 0,14 4,0 0,-14 -4,0 z"
       inkscape:connector-curvature="0" />
    <path
       id="path4194"
       d="M 0,0 24,0 24,24 0,24 Z"
       inkscape:connector-curvature="0"
       style="fill:none" />
  </g>
</svg>
